<svg width="19" height="19" viewBox="0 0 19 19" fill="none" xmlns="http://www.w3.org/2000/svg">
<g clip-path="url(#clip0_1390_194)">
<path d="M18.1739 9.71058C18.1739 8.93171 18.112 8.36334 17.9782 7.77393H9.2724V11.2894H14.3825C14.2795 12.163 13.7232 13.4787 12.4868 14.3628L12.4695 14.4805L15.2221 16.659L15.4128 16.6784C17.1642 15.0259 18.1739 12.5945 18.1739 9.71058Z" fill="#4285F4"/>
<path d="M9.2724 18.9729C11.7759 18.9729 13.8776 18.1308 15.4128 16.6783L12.4868 14.3627C11.7038 14.9205 10.6529 15.31 9.2724 15.31C6.82038 15.31 4.73926 13.6575 3.99739 11.3735L3.88865 11.383L1.02646 13.6459L0.989029 13.7522C2.51381 16.8467 5.64583 18.9729 9.2724 18.9729Z" fill="#34A853"/>
<path d="M3.9974 11.3736C3.80165 10.7842 3.68836 10.1526 3.68836 9.50004C3.68836 8.84742 3.80165 8.21592 3.9871 7.62651L3.98191 7.50098L1.08385 5.20166L0.989033 5.24774C0.360597 6.53185 0 7.97386 0 9.50004C0 11.0262 0.360597 12.4682 0.989033 13.7523L3.9974 11.3736Z" fill="#FBBC05"/>
<path d="M9.2724 3.69016C11.0135 3.69016 12.188 4.45851 12.8577 5.1006L15.4746 2.49029C13.8674 0.964108 11.7759 0.0273438 9.2724 0.0273438C5.64583 0.0273438 2.51381 2.15346 0.989029 5.2479L3.98709 7.62667C4.73926 5.34267 6.82038 3.69016 9.2724 3.69016Z" fill="#EB4335"/>
</g>
<defs>
<clipPath id="clip0_1390_194">
<rect width="18.1739" height="19" rx="9.08696" fill="white"/>
</clipPath>
</defs>
</svg>
